<?xml version="1.0" encoding="utf-8"?>
<!-- Generator: Adobe Illustrator 25.2.0, SVG Export Plug-In . SVG Version: 6.00 Build 0)  -->
<svg version="1.1" id="Layer_1" xmlns="http://www.w3.org/2000/svg" xmlns:xlink="http://www.w3.org/1999/xlink" x="0px" y="0px"
	 viewBox="0 0 2500 2383" style="enable-background:new 0 0 2500 2383;" xml:space="preserve">
<style type="text/css">
	.st0{fill:url(#SVGID_1_);}
	.st1{fill:url(#SVGID_2_);}
	.st2{fill:#14559A;}
	.st3{fill:url(#SVGID_3_);}
	.st4{fill:#3092C4;}
	.st5{fill:#1969BC;}
	.st6{fill:url(#SVGID_4_);}
	.st7{fill:url(#SVGID_5_);}
	.st8{fill:url(#SVGID_6_);}
	.st9{fill:#2B74B1;}
	.st10{fill:#125A9E;}
	.st11{fill:url(#SVGID_7_);}
	.st12{fill:url(#SVGID_8_);}
	.st13{fill:#0D82CA;}
	.st14{fill:url(#SVGID_9_);}
	.st15{fill:#127BCA;}
	.st16{fill:url(#SVGID_10_);}
	.st17{fill:url(#SVGID_11_);}
	.st18{fill:#05A1E6;}
	.st19{fill:url(#SVGID_12_);}
	.st20{fill:url(#SVGID_13_);}
	.st21{fill:url(#SVGID_14_);}
	.st22{fill:#079AE1;}
	.st23{fill:#1E5CB3;}
	.st24{fill:#1D60B5;}
	.st25{fill:#175FAB;}
	.st26{fill:url(#SVGID_15_);}
	.st27{fill:#7DCBEC;}
	.st28{fill:#5EC5ED;}
	.st29{fill:url(#SVGID_16_);}
	.st30{fill:url(#SVGID_17_);}
	.st31{fill:url(#SVGID_18_);}
</style>
<g>
	
		<linearGradient id="SVGID_1_" gradientUnits="userSpaceOnUse" x1="942.3939" y1="1588.3199" x2="942.3939" y2="1586.8286" gradientTransform="matrix(445.3907 0 0 -794.2871 -418632.5938 1262293.625)">
		<stop  offset="0" style="stop-color:#0994DC"/>
		<stop  offset="0.35" style="stop-color:#66CEF5"/>
		<stop  offset="0.35" style="stop-color:#66CEF5"/>
		<stop  offset="0.8462" style="stop-color:#127BCA"/>
		<stop  offset="0.8462" style="stop-color:#127BCA"/>
		<stop  offset="1" style="stop-color:#127BCA"/>
	</linearGradient>
	<path class="st0" d="M878.1,898.9c89.5,273.7,123.4,761.9,385.1,761.9c19.9,0,40.1-2,60.3-5.8c-237.9-55.5-266.1-538.4-411.3-788.5
		C900.6,877.1,889.3,887.9,878.1,898.9"/>
	
		<linearGradient id="SVGID_2_" gradientUnits="userSpaceOnUse" x1="942.4933" y1="1588.3169" x2="942.4933" y2="1586.8254" gradientTransform="matrix(467.4707 0 0 -814.5215 -439442.0312 1294399.75)">
		<stop  offset="0" style="stop-color:#0E76BC"/>
		<stop  offset="0.36" style="stop-color:#36AEE8"/>
		<stop  offset="0.36" style="stop-color:#36AEE8"/>
		<stop  offset="0.8462" style="stop-color:#00ADEF"/>
		<stop  offset="0.8462" style="stop-color:#00ADEF"/>
		<stop  offset="1" style="stop-color:#00ADEF"/>
	</linearGradient>
	<path class="st1" d="M912.2,866.5c145.2,250.1,173.4,733,411.3,788.5c18.7-3.4,37.4-8.6,56.2-15.2
		c-213.5-104.6-272.6-573.6-437.4-799.3C932.1,849,922.1,857.7,912.2,866.5"/>
	<path class="st2" d="M1121.4,717.8c-19.9,0-40.1,2-60.3,5.8c-53,10-106.8,32.8-161,67.3c14.8,14.6,28.9,31.3,42.2,49.6
		c55.2-45.8,110-79.6,164.6-99.9c19.9-7.5,40.5-13.2,61.4-17.1C1152.9,719.7,1137.2,717.7,1121.4,717.8"/>
	
		<linearGradient id="SVGID_3_" gradientUnits="userSpaceOnUse" x1="942.3867" y1="1587.011" x2="942.3867" y2="1588.1823" gradientTransform="matrix(443.8769 0 0 -825.1953 -416913.5625 1311227.5)">
		<stop  offset="0" style="stop-color:#1C63B7"/>
		<stop  offset="0.5" style="stop-color:#33BDF2"/>
		<stop  offset="1" style="stop-color:#33BDF2;stop-opacity:0.42"/>
	</linearGradient>
	<path class="st3" d="M1546.4,1543.4c22.8-18.2,44.7-37.4,65.7-57.5c-90.9-272.4-123.5-767.6-387-767.6c-18.8,0-37.9,1.8-56.8,5.3
		C1408.2,783.2,1439,1305.5,1546.4,1543.4"/>
	<path class="st4" d="M1168.2,723.5c-15.3-3.8-31-5.8-46.8-5.7l103.6,0.4C1206.2,718.2,1187.2,719.9,1168.2,723.5"/>
	<path class="st5" d="M1541.8,1601.3c-10.3-9.8-20.1-20.6-29.7-32.1c-44.3,31.4-88.5,55.2-132.4,70.7c15.7,7.7,32.3,13.3,49.4,16.8
		c13.8,2.8,27.9,4.2,42.1,4.2c49.2,0,88.2-5.8,121.3-21.7C1574.2,1629.2,1557.4,1616.4,1541.8,1601.3"/>
	
		<linearGradient id="SVGID_4_" gradientUnits="userSpaceOnUse" x1="942.3659" y1="1588.3124" x2="942.3659" y2="1586.8209" gradientTransform="matrix(439.5606 0 0 -845.6836 -412900.3125 1343768.125)">
		<stop  offset="0" style="stop-color:#166AB8"/>
		<stop  offset="0.4" style="stop-color:#36AEE8"/>
		<stop  offset="0.4" style="stop-color:#36AEE8"/>
		<stop  offset="0.8462" style="stop-color:#0798DD"/>
		<stop  offset="0.8462" style="stop-color:#0798DD"/>
		<stop  offset="1" style="stop-color:#0798DD"/>
	</linearGradient>
	<path class="st6" d="M1106.8,740.6c215,112.5,233.7,621.8,405.3,828.6c11.7-8.2,23.1-16.8,34.3-25.8
		c-107.4-237.9-138.1-760.3-378.1-819.9C1147.3,727.4,1126.7,733.1,1106.8,740.6"/>
	
		<linearGradient id="SVGID_5_" gradientUnits="userSpaceOnUse" x1="942.8538" y1="1588.3054" x2="942.8538" y2="1586.814" gradientTransform="matrix(569.834 0 0 -899.2383 -536042.9375 1428830.125)">
		<stop  offset="0" style="stop-color:#124379"/>
		<stop  offset="0.39" style="stop-color:#1487CB"/>
		<stop  offset="0.39" style="stop-color:#1487CB"/>
		<stop  offset="0.7802" style="stop-color:#165197"/>
		<stop  offset="0.7802" style="stop-color:#165197"/>
		<stop  offset="1" style="stop-color:#165197"/>
	</linearGradient>
	<path class="st7" d="M942.2,840.5c164.9,225.8,223.9,694.7,437.4,799.3c43.9-15.5,88.1-39.3,132.4-70.7
		c-171.6-206.8-190.3-716.1-405.3-828.6C1052.2,760.9,997.4,794.7,942.2,840.5"/>
	
		<linearGradient id="SVGID_6_" gradientUnits="userSpaceOnUse" x1="939.0535" y1="1587.8284" x2="940.0535" y2="1587.8284" gradientTransform="matrix(189.6387 0 0 -301.9629 -177392.3594 480442.0312)">
		<stop  offset="0" style="stop-color:#33BDF2;stop-opacity:0.698"/>
		<stop  offset="1" style="stop-color:#1DACD8"/>
	</linearGradient>
	<path class="st8" d="M772.6,892.3c-25.8,58.4-52.2,135.2-84.2,235.5c63.5-89.4,126.7-166.5,189.6-228.9c-8.7-26.6-18-51.2-28-73.1
		C823.1,846.6,797.2,868.8,772.6,892.3"/>
	<path class="st9" d="M873,808.9c-7.7,5.5-15.4,11.1-22.9,16.9c10,21.9,19.3,46.4,28,73.1c11.2-11,22.5-21.8,34.1-32.4
		C900,845.6,887.1,826.3,873,808.9"/>
	<path class="st10" d="M900.1,790.9c-9.2,5.8-18.2,11.8-27.1,18c14.1,17.3,27,36.7,39.2,57.6c9.8-8.9,19.8-17.6,30-26.1
		C929,822.2,914.9,805.5,900.1,790.9"/>
	
		<linearGradient id="SVGID_7_" gradientUnits="userSpaceOnUse" x1="943.2863" y1="1587.156" x2="943.2863" y2="1588.1332" gradientTransform="matrix(772.8809 0 0 -963.6634 -726935.4375 1531093.5)">
		<stop  offset="0" style="stop-color:#136AB4"/>
		<stop  offset="0.6" style="stop-color:#59CAF5;stop-opacity:0.549"/>
		<stop  offset="1" style="stop-color:#59CAF5;stop-opacity:0.235"/>
	</linearGradient>
	<path class="st11" d="M2366.8,696.9c-121.6,469-375.6,845.7-588.6,940.7h-0.4c-3.9,1.8-7.7,3.4-11.5,4.9c-0.5,0.3-1,0.4-1.4,0.5
		c-1.1,0.4-2.1,0.8-3.3,1.2c-0.5,0.3-1,0.4-1.5,0.6c-1.8,0.6-3.6,1.2-5.3,1.9c-0.8,0.3-1.5,0.5-2.2,0.8c-0.9,0.3-1.7,0.6-2.6,0.9
		c-0.8,0.3-1.6,0.5-2.6,0.9c-0.8,0.3-1.6,0.4-2.3,0.8c-1.6,0.4-3,0.8-4.6,1.4c-0.6,0-1.2,0.4-1.9,0.5c-1,0.3-2.1,0.5-3.1,0.8
		c-0.7,0.3-1.3,0.4-2.1,0.6c-1.1,0.3-2.3,0.6-3.4,0.9l-4.1,0.9c9.8,3.6,20.1,5.4,30.5,5.4c201.9,0,405.5-361.9,742.4-963.7h-132.3
		L2366.8,696.9L2366.8,696.9z"/>
	
		<linearGradient id="SVGID_8_" gradientUnits="userSpaceOnUse" x1="942.6663" y1="1587.6024" x2="943.6663" y2="1587.6024" gradientTransform="matrix(703.3398 0 0 -968.3691 -662999.125 1538587)">
		<stop  offset="0" style="stop-color:#05A1E6;stop-opacity:0.247"/>
		<stop  offset="1" style="stop-color:#05A1E6"/>
	</linearGradient>
	<path class="st12" d="M644.6,736.8c0.1,0,0.3-0.3,0.4-0.3c0.2,0,0.4,0,0.5-0.3h0.3c1.1-0.4,2.1-0.8,3.3-1.2c0.3,0,0.4,0,0.6-0.3
		c0.3,0,0.6-0.3,0.8-0.4c1.2-0.4,2.4-0.8,3.5-1.2h0.2c2.7-0.8,5.2-1.8,7.7-2.7c0.4,0,0.7-0.3,1.2-0.3c1.1-0.4,2.2-0.7,3.3-1
		c0.5-0.3,1-0.3,1.5-0.5c1.2-0.3,2.3-0.7,3.3-1c0.5,0,0.9-0.3,1.3-0.4c3.7-1,7.4-2,11.1-2.9c0.5,0,1-0.3,1.5-0.4
		c1.1-0.3,2.1-0.5,3.2-0.6c0.5-0.3,1-0.3,1.6-0.5c1.1-0.3,2.1-0.4,3.3-0.6h0.8c2.2-0.5,4.5-0.8,6.8-1.2h1.4c1.1-0.3,2-0.4,3.1-0.5
		c0.6,0,1.2-0.3,1.8-0.3c1,0,2-0.3,3-0.4c0.5,0,1,0,1.6-0.3c2.4-0.3,4.8-0.4,7.3-0.6c-7.1-0.7-14.3-1.1-21.5-1.1
		c-227.4,0-540.7,421.9-681.9,968.4h27.2c45.2-80.5,85.7-156.7,122.9-228.3C264.5,1070.6,465.8,806.7,644.6,736.8"/>
	<path class="st13" d="M772.6,892.3c24.6-23.5,50.5-45.7,77.5-66.5c-5.5-12.2-11.6-24.1-18.4-35.7
		C810.9,815.4,791.8,848.7,772.6,892.3"/>
	<path class="st13" d="M791.3,740c14.8,12.5,28.2,29.6,40.3,50.1c3.8-4.7,7.7-9.1,11.7-13.1c-16.9-15.8-35.1-28.7-55-38.5
		c0.8,0.4,1.6,0.8,2.4,1.2C790.9,739.7,791.2,740,791.3,740"/>
	
		<linearGradient id="SVGID_9_" gradientUnits="userSpaceOnUse" x1="942.5417" y1="1586.8944" x2="942.5417" y2="1588.2318" gradientTransform="matrix(479.0137 0 0 -720.9277 -451085.25 1145669.125)">
		<stop  offset="0" style="stop-color:#318ED5"/>
		<stop  offset="1" style="stop-color:#38A7E4"/>
	</linearGradient>
	<path class="st14" d="M165.6,1457.7c207.4-399.6,305.6-652.5,479-720.9C465.8,806.8,264.5,1070.7,165.6,1457.7"/>
	<path class="st15" d="M843.4,777c-4,4.1-7.9,8.4-11.7,13.1c6.8,11.5,13,23.4,18.5,35.7c7.5-5.7,15.2-11.4,22.9-16.8
		C863.9,797.6,854,786.9,843.4,777"/>
	
		<linearGradient id="SVGID_10_" gradientUnits="userSpaceOnUse" x1="942.3937" y1="1587.2657" x2="942.3937" y2="1588.9456" gradientTransform="matrix(445.3516 0 0 -557.8906 -419230.6875 887157.125)">
		<stop  offset="0" style="stop-color:#05A1E6"/>
		<stop  offset="1" style="stop-color:#05A1E6;stop-opacity:0.549"/>
	</linearGradient>
	<path class="st16" d="M259.8,1684.2c-1.3,0.3-2.6,0.3-3.8,0.4h-0.7c-1.1,0-2.2,0.3-3.2,0.3h-0.5c-2.6,0.3-5.2,0.3-7.6,0.5h-0.8
		c209.9-5.9,305.8-110.9,353.4-263.3c36.2-115.5,65.9-212.9,91.9-294.5c-87.9,123.7-176.2,271.2-265,436.4
		c-42.8,79.6-107.9,112.9-163.8,120"/>
	
		<linearGradient id="SVGID_11_" gradientUnits="userSpaceOnUse" x1="942.671" y1="1587.1252" x2="942.671" y2="1588.1252" gradientTransform="matrix(512.8906 0 0 -791.9336 -482970.9688 1258581.875)">
		<stop  offset="0" style="stop-color:#1959A6"/>
		<stop  offset="0.5" style="stop-color:#05A1E6"/>
		<stop  offset="0.5" style="stop-color:#05A1E6"/>
		<stop  offset="0.9176" style="stop-color:#7EC5EA"/>
		<stop  offset="1" style="stop-color:#7EC5EA"/>
	</linearGradient>
	<path class="st17" d="M259.8,1684.1c55.8-7.1,120.9-40.3,163.7-120c88.8-165.2,177.1-312.7,264.9-436.4
		c32-100.3,58.3-177.1,84.2-235.5C597.6,1058.8,421.9,1335.9,259.8,1684.1"/>
	<path class="st18" d="M165.6,1457.7c-37.1,71.5-77.7,147.7-122.9,228.3h79.1C131.9,1609.1,146.5,1532.9,165.6,1457.7"/>
	
		<linearGradient id="SVGID_12_" gradientUnits="userSpaceOnUse" x1="943.2765" y1="1587.1569" x2="943.0632" y2="1588.045" gradientTransform="matrix(709.7363 0 0 -966.8456 -668931 1536169.25)">
		<stop  offset="0" style="stop-color:#165096"/>
		<stop  offset="1" style="stop-color:#0D82CA"/>
	</linearGradient>
	<path class="st19" d="M711.7,719.6c-0.6,0-1.1,0.3-1.7,0.3c-1,0.3-2,0.3-3,0.4c-0.6,0-1.2,0-1.8,0.3c-1.1,0.3-2.1,0.3-3.1,0.5
		c-0.5,0-1,0-1.4,0.3c-2.3,0.4-4.5,0.8-6.7,1.2h-0.8c-1.2,0.3-2.2,0.5-3.3,0.6c-0.6,0.3-1.1,0.3-1.6,0.4c-1.1,0.3-2.1,0.4-3.2,0.6
		c-0.6,0.3-1,0.3-1.5,0.3c-3.7,0.9-7.4,1.9-11.1,2.9c-0.4,0-0.8,0.3-1.3,0.4c-1.1,0.3-2.2,0.6-3.4,1c-0.5,0.3-1,0.3-1.5,0.4
		c-1.1,0.3-2.2,0.6-3.3,1c-0.4,0-0.8,0.3-1.2,0.3c-2.6,1-5.1,1.9-7.7,2.7c-1.1,0.4-2.3,0.8-3.5,1.2c-0.5,0.3-0.9,0.4-1.5,0.6
		c-1.1,0.4-2.2,0.8-3.3,1.2c-0.4,0.3-0.8,0.4-1.1,0.5c-173.4,68.5-271.7,321.3-479,720.9c-19.2,75.1-33.8,151.4-43.7,228.3h11.1
		c31.3,0,40.1-0.3,76.1-0.3h34.9c2.5-0.3,5-0.3,7.6-0.5h0.5c1.1,0,2.1-0.3,3.2-0.3h0.8c1.2,0,2.5-0.3,3.8-0.4
		c162.1-348.2,337.8-625.2,512.9-791.9c19.2-43.6,38.2-76.9,59-102.1c-12.1-20.5-25.4-37.7-40.3-50.2c0,0-0.4,0-0.4-0.3
		c-0.8-0.3-1.6-0.8-2.5-1.2c-0.8-0.5-1.6-0.8-2.4-1.2c-0.8-0.3-1.6-0.7-2.4-1.2c-1-0.3-1.9-0.8-2.8-1.2c-0.8-0.3-1.4-0.6-2.2-1
		c-1.5-0.6-3.1-1.2-4.6-1.9c-0.7-0.3-1.3-0.5-2-0.7c-1.2-0.4-2.3-0.9-3.4-1.4c-0.6-0.3-1.2-0.4-1.8-0.6c-1.6-0.5-3.2-1.1-4.7-1.6
		h-0.4c-1.8-0.6-3.6-1.1-5.5-1.6c-0.4-0.3-0.8-0.3-1.2-0.4c-1.6-0.4-3.1-0.9-4.6-1.3c-0.4,0-0.8-0.3-1.1-0.3
		c-3.8-1-7.7-1.8-11.6-2.5c-0.4,0-0.8-0.3-1.2-0.3c-1.7-0.3-3.3-0.6-5-0.8c-0.4-0.3-0.6-0.3-1-0.3c-2-0.3-3.9-0.6-5.9-0.8h-1
		c-1.6-0.3-3.1-0.3-4.6-0.5c-2.5,0.3-4.9,0.4-7.3,0.7"/>
	
		<linearGradient id="SVGID_13_" gradientUnits="userSpaceOnUse" x1="941.5685" y1="1587.4075" x2="941.5685" y2="1588.2104" gradientTransform="matrix(319.9902 0 0 -558.8477 -299341.3125 888267)">
		<stop  offset="0" style="stop-color:#05A1E6"/>
		<stop  offset="0.8736" style="stop-color:#0495D6"/>
		<stop  offset="1" style="stop-color:#0495D6"/>
	</linearGradient>
	<path class="st20" d="M1891.7,956.6c-39.9,127.8-72.2,233.2-100.3,320c109.5-150.6,217.3-340.2,320-558.8
		C1991.6,755.3,1927.7,841.5,1891.7,956.6"/>
	
		<linearGradient id="SVGID_14_" gradientUnits="userSpaceOnUse" x1="943.0588" y1="1588.147" x2="942.7488" y2="1587.047" gradientTransform="matrix(588.5743 0 0 -940.6543 -552897.875 1494555.125)">
		<stop  offset="0" style="stop-color:#38A7E4;stop-opacity:0.329"/>
		<stop  offset="0.9615" style="stop-color:#0E88D3"/>
		<stop  offset="0.9615" style="stop-color:#0E88D3"/>
		<stop  offset="1" style="stop-color:#0E88D3"/>
	</linearGradient>
	<path class="st21" d="M1794.9,1629.6c-5.6,2.9-11.2,5.6-16.7,8c213-95,467-471.7,588.6-940.7h-24.6
		C2062.7,1196.1,1972.9,1530.2,1794.9,1629.6"/>
	<path class="st22" d="M1655.8,1587.7c46.3-56.6,84.1-152.7,135.6-311.1c-59.4,81.6-119.3,151.8-179.1,209c0,0.3,0,0.3-0.3,0.5
		c13.1,39.1,27.4,73.7,43.7,101.6"/>
	<path class="st5" d="M1655.8,1587.7c-15.8,19.2-32.5,33.9-51,44.8c-4.1,2.4-8.2,4.6-12.4,6.6c20.2,10.9,42.2,17.9,65,20.5
		c3.5,0.4,7,0.7,10.6,0.9h0.6c1.6,0,3.3,0,5.1,0.3h17.3c0.6,0,1.3,0,1.9-0.3c1.2,0,2.5,0,3.8-0.3h1.9c1.3,0,2.7-0.3,4.2-0.4h0.3
		c0.4,0,0.9-0.3,1.3-0.3c1.5-0.3,3-0.4,4.4-0.7h1.3c1.6-0.3,3.3-0.5,5-0.8h0.8c3.3-0.6,6.6-1.3,9.9-2.1
		c-27.5-10.1-50.5-33.8-70.3-67.6"/>
	<path class="st23" d="M1263.2,1660.8c19.9,0,40.1-2,60.3-5.8c18.7-3.4,37.4-8.6,56.2-15.1c15.7,7.7,32.2,13.3,49.3,16.8
		c13.9,2.8,28,4.2,42.1,4.2H1263.2z"/>
	<path class="st23" d="M1471.1,1660.8c49.2,0,88.2-5.8,121.3-21.7c20.2,10.9,42.2,17.9,65,20.5c3.5,0.3,7,0.7,10.6,0.9h0.6
		c1.6,0,3.3,0,5.1,0.3h6H1471L1471.1,1660.8L1471.1,1660.8z"/>
	<path class="st24" d="M1679.9,1660.8h11.4c0.7,0,1.3,0,2-0.3c1.2,0,2.5,0,3.9-0.3h1.9c1.3,0,2.7-0.3,4.1-0.4h0.4
		c0.4,0,0.8-0.3,1.2-0.3c1.5-0.3,3-0.4,4.4-0.7c0.5,0,0.9,0,1.4-0.3c1.6-0.3,3.3-0.5,5-0.8h0.8c3.3-0.6,6.6-1.3,9.9-2.1
		c9.8,3.6,20.1,5.4,30.5,5.4l-76.8,0.3L1679.9,1660.8z"/>
	<path class="st25" d="M1612.1,1486.1v-0.3c-21,20.2-42.9,39.4-65.7,57.5c-11.2,8.9-22.6,17.5-34.3,25.8
		c9.6,11.5,19.4,22.3,29.7,32.1c15.7,15.2,32.4,27.9,50.6,37.8c4.2-2.1,8.3-4.3,12.3-6.6c18.6-10.9,35.3-25.5,51.1-44.8
		C1639.6,1559.8,1625.3,1525.2,1612.1,1486.1"/>
	
		<linearGradient id="SVGID_15_" gradientUnits="userSpaceOnUse" x1="943.1332" y1="1588.1064" x2="943.1332" y2="1587.0847" gradientTransform="matrix(686.3376 0 0 -958.1152 -645309 1522283)">
		<stop  offset="0" style="stop-color:#168CD4"/>
		<stop  offset="0.5" style="stop-color:#1C87CC"/>
		<stop  offset="1" style="stop-color:#154B8D"/>
	</linearGradient>
	<path class="st26" d="M2264.1,696.9h-124c-6.7,0.3-13.2,0.5-19.6,1c-3,6.5-6.2,13-9.2,19.6c-102.7,218.7-210.5,408.2-320,558.8
		c-51.5,158.4-89.3,254.6-135.6,311.1c19.8,33.8,42.9,57.5,70.2,67.6c0.8-0.3,1.4-0.3,2.2-0.5h0.4c0.5,0,1-0.3,1.5-0.3
		c1.1-0.3,2.3-0.5,3.4-0.9c0.7-0.3,1.3-0.4,2-0.6c1-0.3,2.1-0.5,3.1-0.8c0.6-0.3,1.3-0.4,1.9-0.5c1.6-0.5,3-0.9,4.6-1.4
		c0.7-0.3,1.5-0.6,2.3-0.8c0.9-0.3,1.8-0.5,2.6-0.9c0.9-0.3,1.8-0.5,2.6-0.8c0.7-0.3,1.5-0.5,2.1-0.8c1.8-0.6,3.6-1.2,5.4-1.9
		c0.5,0,1-0.4,1.5-0.5c1.1-0.4,2.2-0.8,3.3-1.3c0.4-0.3,0.9-0.4,1.4-0.5c3.8-1.6,7.6-3.2,11.5-4.9h0.4c5.6-2.5,11.2-5.2,16.7-8
		c178-99.4,267.9-433.6,547.3-932.7L2264.1,696.9L2264.1,696.9L2264.1,696.9z"/>
	<path class="st27" d="M718.9,718.9c0.4,0,0.8,0,1.3,0.3c1.1,0,2.2,0,3.2,0.4h1.1c2,0.3,3.9,0.5,5.9,0.8c0.4,0,0.7,0,1,0.3
		c1.6,0.3,3.3,0.6,5,0.8c0.4,0,0.8,0.3,1.2,0.3c3.8,0.8,7.8,1.6,11.5,2.5c0.4,0,0.7,0.3,1,0.3c1.6,0.4,3,0.9,4.6,1.3
		c0.5,0,0.8,0.3,1.3,0.4c1.9,0.5,3.6,1,5.5,1.6c0.1,0,0.2,0,0.4,0.3c1.6,0.5,3.2,1.1,4.8,1.6c0.7,0.3,1.2,0.4,1.8,0.6
		c1.1,0.5,2.4,1,3.4,1.4c0.6,0,1.3,0.4,2,0.7c1.5,0.7,3,1.3,4.6,1.9c0.8,0.3,1.5,0.7,2.2,1c0.9,0.4,1.8,0.9,2.7,1.2
		c0.8,0.4,1.7,0.8,2.4,1.2c0.8,0.5,1.6,0.8,2.4,1.2c19.8,9.7,38.1,22.7,55,38.5c6-6.4,12.6-12.3,19.5-17.7
		c-36.9-26.2-78.8-41.2-127.1-41.2c-5.6,0-11.2,0.3-16.9,0.7"/>
	<path class="st28" d="M843.4,777c10.6,9.9,20.5,20.6,29.6,32c8.9-6.2,17.9-12.3,27.1-18.1c-11.5-11.6-24-22.1-37.3-31.6
		C855.9,764.7,849.4,770.6,843.4,777"/>
	
		<linearGradient id="SVGID_16_" gradientUnits="userSpaceOnUse" x1="941.2076" y1="1583.5552" x2="941.919" y2="1585.8092" gradientTransform="matrix(316.9922 0 0 41.5039 -297605.1562 -65049.7422)">
		<stop  offset="0" style="stop-color:#97D6EE"/>
		<stop  offset="0.7033" style="stop-color:#55C1EA"/>
		<stop  offset="1" style="stop-color:#55C1EA"/>
	</linearGradient>
	<path class="st29" d="M718.9,718.9c5.7-0.5,11.3-0.7,16.9-0.7c48.3,0,90.1,14.9,127.1,41.1c39-30.8,86.1-41.5,151.6-41.5h-317
		C704.7,717.8,711.9,718.2,718.9,718.9"/>
	
		<linearGradient id="SVGID_17_" gradientUnits="userSpaceOnUse" x1="940.4405" y1="1586.5804" x2="941.1292" y2="1585.4761" gradientTransform="matrix(258.5156 0 0 73.0859 -242237.7812 -115170.4297)">
		<stop  offset="0" style="stop-color:#7ACCEC"/>
		<stop  offset="1" style="stop-color:#3FB7ED"/>
	</linearGradient>
	<path class="st30" d="M1014.4,717.8c-65.5,0-112.6,10.7-151.6,41.5c13.3,9.5,25.7,20,37.2,31.6c54.3-34.5,108-57.4,161-67.3
		c19.9-3.8,40-5.7,60.3-5.8H1014.4L1014.4,717.8z"/>
	
		<linearGradient id="SVGID_18_" gradientUnits="userSpaceOnUse" x1="942.6544" y1="1588.0623" x2="942.6544" y2="1586.8463" gradientTransform="matrix(508.2521 0 0 -787.4512 -477239.5938 1251269.75)">
		<stop  offset="0" style="stop-color:#1DA7E7"/>
		<stop  offset="1" style="stop-color:#37ABE7;stop-opacity:0"/>
	</linearGradient>
	<path class="st31" d="M1791.4,1276.6c28.2-86.8,60.4-192.2,100.4-320.1c36-115.2,99.8-201.3,219.6-238.9c3.2-6.4,6.2-13.1,9.2-19.6
		c-195.3,11.7-286.5,111-332.4,258.1c-80.3,256.8-129,423.3-175.8,529.3C1672.2,1428.4,1732,1358.2,1791.4,1276.6"/>
</g>
</svg>
