<?xml version="1.0" encoding="utf-8"?>
<!-- Generator: Adobe Illustrator 25.2.0, SVG Export Plug-In . SVG Version: 6.00 Build 0)  -->
<svg version="1.1" id="Layer_1" xmlns="http://www.w3.org/2000/svg" xmlns:xlink="http://www.w3.org/1999/xlink" x="0px" y="0px"
	 viewBox="0 0 48 48" style="enable-background:new 0 0 48 48;" xml:space="preserve">
<style type="text/css">
	.st0{fill:#FFFFFF;}
	.st1{fill:#0277BD;}
	.st2{fill:none;}
</style>
<path class="st0" d="M39,34.2c-3.2,5.3-8.9,8.6-14.9,8.3c-6.8-0.3-11-4.9-11.7-5.8c-1.4-1.2-4.6-4.4-6-9.5c-2-7.6,1.6-13.7,2.3-14.9
	c2.1-1.4,7.8-4.7,15.7-4.6c6.9,0.1,11.9,2.8,14,4.1c1.3,2.5,3.9,8.5,2.6,15.8C40.7,30.3,39.9,32.5,39,34.2z"/>
<path class="st1" d="M25.9,24.2c0.1,0.1,0.1,0.3,0.1,0.5l-0.3,1.2c0,0.2-0.2,0.3-0.3,0.4l-1.1,0.5c-0.2,0.1-0.4,0.1-0.5,0l-1.1-0.5
	c-0.2-0.1-0.3-0.2-0.3-0.4L22,24.7c0-0.2,0-0.4,0.1-0.5l0.8-1c0.1-0.1,0.3-0.2,0.5-0.2h1.2c0.2,0,0.4,0.1,0.5,0.2L25.9,24.2z"/>
<path class="st1" d="M25.3,15.3l0,0.4c0.1,1,0.2,2.1,0.3,3.1c0,0.4,0.1,0.8,0.1,1.2c0,0.3,0.4,0.5,0.6,0.3c0.3-0.2,0.7-0.5,1-0.7
	c0.9-0.6,1.7-1.2,2.6-1.7l0.3-0.2C29,16.5,27.2,15.6,25.3,15.3z M25.3,15.3l0,0.4c0.1,1,0.2,2.1,0.3,3.1c0,0.4,0.1,0.8,0.1,1.2
	c0,0.3,0.4,0.5,0.6,0.3c0.3-0.2,0.7-0.5,1-0.7c0.9-0.6,1.7-1.2,2.6-1.7l0.3-0.2C29,16.5,27.2,15.6,25.3,15.3z M25.3,15.3l0,0.4
	c0.1,1,0.2,2.1,0.3,3.1c0,0.4,0.1,0.8,0.1,1.2c0,0.3,0.4,0.5,0.6,0.3c0.3-0.2,0.7-0.5,1-0.7c0.9-0.6,1.7-1.2,2.6-1.7l0.3-0.2
	C29,16.5,27.2,15.6,25.3,15.3z M25.3,15.3l0,0.4c0.1,1,0.2,2.1,0.3,3.1c0,0.4,0.1,0.8,0.1,1.2c0,0.3,0.4,0.5,0.6,0.3
	c0.3-0.2,0.7-0.5,1-0.7c0.9-0.6,1.7-1.2,2.6-1.7l0.3-0.2C29,16.5,27.2,15.6,25.3,15.3z M25.3,15.3l0,0.4c0.1,1,0.2,2.1,0.3,3.1
	c0,0.4,0.1,0.8,0.1,1.2c0,0.3,0.4,0.5,0.6,0.3c0.3-0.2,0.7-0.5,1-0.7c0.9-0.6,1.7-1.2,2.6-1.7l0.3-0.2C29,16.5,27.2,15.6,25.3,15.3z
	 M32.1,19.8l-0.3,0.3c-0.7,0.8-1.5,1.5-2.2,2.2c-0.5,0.5-1,0.9-1.5,1.4c0.7,0.2,1.3,0.3,2,0.5c1,0.3,2,0.6,3,0.9l0.4,0.1
	c0-0.2,0-0.3,0-0.5C33.5,23,33,21.3,32.1,19.8z M32.1,19.8l-0.3,0.3c-0.7,0.8-1.5,1.5-2.2,2.2c-0.5,0.5-1,0.9-1.5,1.4
	c0.7,0.2,1.3,0.3,2,0.5c1,0.3,2,0.6,3,0.9l0.4,0.1c0-0.2,0-0.3,0-0.5C33.5,23,33,21.3,32.1,19.8z M25.3,15.3l0,0.4
	c0.1,1,0.2,2.1,0.3,3.1c0,0.4,0.1,0.8,0.1,1.2c0,0.3,0.4,0.5,0.6,0.3c0.3-0.2,0.7-0.5,1-0.7c0.9-0.6,1.7-1.2,2.6-1.7l0.3-0.2
	C29,16.5,27.2,15.6,25.3,15.3z M25.3,15.3l0,0.4c0.1,1,0.2,2.1,0.3,3.1c0,0.4,0.1,0.8,0.1,1.2c0,0.3,0.4,0.5,0.6,0.3
	c0.3-0.2,0.7-0.5,1-0.7c0.9-0.6,1.7-1.2,2.6-1.7l0.3-0.2C29,16.5,27.2,15.6,25.3,15.3z M32.6,28c-1-0.1-2.1-0.2-3.1-0.3
	c-0.5,0-0.9-0.1-1.3-0.1c-0.3,0-0.5,0.2-0.4,0.5c0.2,0.4,0.3,0.9,0.5,1.3c0.3,1,0.7,2,1,3l0.1,0.3c1.7-1.1,3-2.8,3.6-4.7L32.6,28z
	 M32.1,19.8l-0.3,0.3c-0.7,0.8-1.5,1.5-2.2,2.2c-0.5,0.5-1,0.9-1.5,1.4c0.7,0.2,1.3,0.3,2,0.5c1,0.3,2,0.6,3,0.9l0.4,0.1
	c0-0.2,0-0.3,0-0.5C33.5,23,33,21.3,32.1,19.8z M32.1,19.8l-0.3,0.3c-0.7,0.8-1.5,1.5-2.2,2.2c-0.5,0.5-1,0.9-1.5,1.4
	c0.7,0.2,1.3,0.3,2,0.5c1,0.3,2,0.6,3,0.9l0.4,0.1c0-0.2,0-0.3,0-0.5C33.5,23,33,21.3,32.1,19.8z M32.6,28c-1-0.1-2.1-0.2-3.1-0.3
	c-0.5,0-0.9-0.1-1.3-0.1c-0.3,0-0.5,0.2-0.4,0.5c0.2,0.4,0.3,0.9,0.5,1.3c0.3,1,0.7,2,1,3l0.1,0.3c1.7-1.1,3-2.8,3.6-4.7L32.6,28z
	 M25.3,15.3l0,0.4c0.1,1,0.2,2.1,0.3,3.1c0,0.4,0.1,0.8,0.1,1.2c0,0.3,0.4,0.5,0.6,0.3c0.3-0.2,0.7-0.5,1-0.7
	c0.9-0.6,1.7-1.2,2.6-1.7l0.3-0.2C29,16.5,27.2,15.6,25.3,15.3z M25.3,15.3l0,0.4c0.1,1,0.2,2.1,0.3,3.1c0,0.4,0.1,0.8,0.1,1.2
	c0,0.3,0.4,0.5,0.6,0.3c0.3-0.2,0.7-0.5,1-0.7c0.9-0.6,1.7-1.2,2.6-1.7l0.3-0.2C29,16.5,27.2,15.6,25.3,15.3z M32.6,28
	c-1-0.1-2.1-0.2-3.1-0.3c-0.5,0-0.9-0.1-1.3-0.1c-0.3,0-0.5,0.2-0.4,0.5c0.2,0.4,0.3,0.9,0.5,1.3c0.3,1,0.7,2,1,3l0.1,0.3
	c1.7-1.1,3-2.8,3.6-4.7L32.6,28z M32.1,19.8l-0.3,0.3c-0.7,0.8-1.5,1.5-2.2,2.2c-0.5,0.5-1,0.9-1.5,1.4c0.7,0.2,1.3,0.3,2,0.5
	c1,0.3,2,0.6,3,0.9l0.4,0.1c0-0.2,0-0.3,0-0.5C33.5,23,33,21.3,32.1,19.8z M32.1,19.8l-0.3,0.3c-0.7,0.8-1.5,1.5-2.2,2.2
	c-0.5,0.5-1,0.9-1.5,1.4c0.7,0.2,1.3,0.3,2,0.5c1,0.3,2,0.6,3,0.9l0.4,0.1c0-0.2,0-0.3,0-0.5C33.5,23,33,21.3,32.1,19.8z M32.6,28
	c-1-0.1-2.1-0.2-3.1-0.3c-0.5,0-0.9-0.1-1.3-0.1c-0.3,0-0.5,0.2-0.4,0.5c0.2,0.4,0.3,0.9,0.5,1.3c0.3,1,0.7,2,1,3l0.1,0.3
	c1.7-1.1,3-2.8,3.6-4.7L32.6,28z M25.3,15.3l0,0.4c0.1,1,0.2,2.1,0.3,3.1c0,0.4,0.1,0.8,0.1,1.2c0,0.3,0.4,0.5,0.6,0.3
	c0.3-0.2,0.7-0.5,1-0.7c0.9-0.6,1.7-1.2,2.6-1.7l0.3-0.2C29,16.5,27.2,15.6,25.3,15.3z M26.6,33.6c-0.6-0.9-1.1-1.8-1.6-2.7
	c-0.2-0.4-0.5-0.8-0.7-1.2c-0.2-0.3-0.5-0.3-0.7,0c-0.2,0.4-0.5,0.8-0.7,1.2c-0.5,0.9-1.1,1.8-1.6,2.7L21.1,34
	c0.9,0.3,1.8,0.4,2.8,0.4c1,0,2-0.2,2.9-0.5L26.6,33.6z M25.3,15.3l0,0.4c0.1,1,0.2,2.1,0.3,3.1c0,0.4,0.1,0.8,0.1,1.2
	c0,0.3,0.4,0.5,0.6,0.3c0.3-0.2,0.7-0.5,1-0.7c0.9-0.6,1.7-1.2,2.6-1.7l0.3-0.2C29,16.5,27.2,15.6,25.3,15.3z M32.6,28
	c-1-0.1-2.1-0.2-3.1-0.3c-0.5,0-0.9-0.1-1.3-0.1c-0.3,0-0.5,0.2-0.4,0.5c0.2,0.4,0.3,0.9,0.5,1.3c0.3,1,0.7,2,1,3l0.1,0.3
	c1.7-1.1,3-2.8,3.6-4.7L32.6,28z M32.1,19.8l-0.3,0.3c-0.7,0.8-1.5,1.5-2.2,2.2c-0.5,0.5-1,0.9-1.5,1.4c0.7,0.2,1.3,0.3,2,0.5
	c1,0.3,2,0.6,3,0.9l0.4,0.1c0-0.2,0-0.3,0-0.5C33.5,23,33,21.3,32.1,19.8z M32.1,19.8l-0.3,0.3c-0.7,0.8-1.5,1.5-2.2,2.2
	c-0.5,0.5-1,0.9-1.5,1.4c0.7,0.2,1.3,0.3,2,0.5c1,0.3,2,0.6,3,0.9l0.4,0.1c0-0.2,0-0.3,0-0.5C33.5,23,33,21.3,32.1,19.8z M32.6,28
	c-1-0.1-2.1-0.2-3.1-0.3c-0.5,0-0.9-0.1-1.3-0.1c-0.3,0-0.5,0.2-0.4,0.5c0.2,0.4,0.3,0.9,0.5,1.3c0.3,1,0.7,2,1,3l0.1,0.3
	c1.7-1.1,3-2.8,3.6-4.7L32.6,28z M25.3,15.3l0,0.4c0.1,1,0.2,2.1,0.3,3.1c0,0.4,0.1,0.8,0.1,1.2c0,0.3,0.4,0.5,0.6,0.3
	c0.3-0.2,0.7-0.5,1-0.7c0.9-0.6,1.7-1.2,2.6-1.7l0.3-0.2C29,16.5,27.2,15.6,25.3,15.3z M26.6,33.6c-0.6-0.9-1.1-1.8-1.6-2.7
	c-0.2-0.4-0.5-0.8-0.7-1.2c-0.2-0.3-0.5-0.3-0.7,0c-0.2,0.4-0.5,0.8-0.7,1.2c-0.5,0.9-1.1,1.8-1.6,2.7L21.1,34
	c0.9,0.3,1.8,0.4,2.8,0.4c1,0,2-0.2,2.9-0.5L26.6,33.6z M19.9,27.5c-0.5,0.1-0.9,0.1-1.3,0.2c-1,0.1-2.1,0.2-3.1,0.3l-0.5,0
	c0.7,2,2,3.6,3.7,4.8l0.1-0.4c0.3-1,0.7-2,1-3c0.2-0.5,0.3-1,0.5-1.4C20.4,27.7,20.2,27.4,19.9,27.5z M26.6,33.6
	c-0.6-0.9-1.1-1.8-1.6-2.7c-0.2-0.4-0.5-0.8-0.7-1.2c-0.2-0.3-0.5-0.3-0.7,0c-0.2,0.4-0.5,0.8-0.7,1.2c-0.5,0.9-1.1,1.8-1.6,2.7
	L21.1,34c0.9,0.3,1.8,0.4,2.8,0.4c1,0,2-0.2,2.9-0.5L26.6,33.6z M25.3,15.3l0,0.4c0.1,1,0.2,2.1,0.3,3.1c0,0.4,0.1,0.8,0.1,1.2
	c0,0.3,0.4,0.5,0.6,0.3c0.3-0.2,0.7-0.5,1-0.7c0.9-0.6,1.7-1.2,2.6-1.7l0.3-0.2C29,16.5,27.2,15.6,25.3,15.3z M32.6,28
	c-1-0.1-2.1-0.2-3.1-0.3c-0.5,0-0.9-0.1-1.3-0.1c-0.3,0-0.5,0.2-0.4,0.5c0.2,0.4,0.3,0.9,0.5,1.3c0.3,1,0.7,2,1,3l0.1,0.3
	c1.7-1.1,3-2.8,3.6-4.7L32.6,28z M32.1,19.8l-0.3,0.3c-0.7,0.8-1.5,1.5-2.2,2.2c-0.5,0.5-1,0.9-1.5,1.4c0.7,0.2,1.3,0.3,2,0.5
	c1,0.3,2,0.6,3,0.9l0.4,0.1c0-0.2,0-0.3,0-0.5C33.5,23,33,21.3,32.1,19.8z M32.1,19.8l-0.3,0.3c-0.7,0.8-1.5,1.5-2.2,2.2
	c-0.5,0.5-1,0.9-1.5,1.4c0.7,0.2,1.3,0.3,2,0.5c1,0.3,2,0.6,3,0.9l0.4,0.1c0-0.2,0-0.3,0-0.5C33.5,23,33,21.3,32.1,19.8z M32.6,28
	c-1-0.1-2.1-0.2-3.1-0.3c-0.5,0-0.9-0.1-1.3-0.1c-0.3,0-0.5,0.2-0.4,0.5c0.2,0.4,0.3,0.9,0.5,1.3c0.3,1,0.7,2,1,3l0.1,0.3
	c1.7-1.1,3-2.8,3.6-4.7L32.6,28z M25.3,15.3l0,0.4c0.1,1,0.2,2.1,0.3,3.1c0,0.4,0.1,0.8,0.1,1.2c0,0.3,0.4,0.5,0.6,0.3
	c0.3-0.2,0.7-0.5,1-0.7c0.9-0.6,1.7-1.2,2.6-1.7l0.3-0.2C29,16.5,27.2,15.6,25.3,15.3z M26.6,33.6c-0.6-0.9-1.1-1.8-1.6-2.7
	c-0.2-0.4-0.5-0.8-0.7-1.2c-0.2-0.3-0.5-0.3-0.7,0c-0.2,0.4-0.5,0.8-0.7,1.2c-0.5,0.9-1.1,1.8-1.6,2.7L21.1,34
	c0.9,0.3,1.8,0.4,2.8,0.4c1,0,2-0.2,2.9-0.5L26.6,33.6z M19.9,27.5c-0.5,0.1-0.9,0.1-1.3,0.2c-1,0.1-2.1,0.2-3.1,0.3l-0.5,0
	c0.7,2,2,3.6,3.7,4.8l0.1-0.4c0.3-1,0.7-2,1-3c0.2-0.5,0.3-1,0.5-1.4C20.4,27.7,20.2,27.4,19.9,27.5z M19.9,27.5
	c-0.5,0.1-0.9,0.1-1.3,0.2c-1,0.1-2.1,0.2-3.1,0.3l-0.5,0c0.7,2,2,3.6,3.7,4.8l0.1-0.4c0.3-1,0.7-2,1-3c0.2-0.5,0.3-1,0.5-1.4
	C20.4,27.7,20.2,27.4,19.9,27.5z M26.6,33.6c-0.6-0.9-1.1-1.8-1.6-2.7c-0.2-0.4-0.5-0.8-0.7-1.2c-0.2-0.3-0.5-0.3-0.7,0
	c-0.2,0.4-0.5,0.8-0.7,1.2c-0.5,0.9-1.1,1.8-1.6,2.7L21.1,34c0.9,0.3,1.8,0.4,2.8,0.4c1,0,2-0.2,2.9-0.5L26.6,33.6z M25.3,15.3
	l0,0.4c0.1,1,0.2,2.1,0.3,3.1c0,0.4,0.1,0.8,0.1,1.2c0,0.3,0.4,0.5,0.6,0.3c0.3-0.2,0.7-0.5,1-0.7c0.9-0.6,1.7-1.2,2.6-1.7l0.3-0.2
	C29,16.5,27.2,15.6,25.3,15.3z M32.6,28c-1-0.1-2.1-0.2-3.1-0.3c-0.5,0-0.9-0.1-1.3-0.1c-0.3,0-0.5,0.2-0.4,0.5
	c0.2,0.4,0.3,0.9,0.5,1.3c0.3,1,0.7,2,1,3l0.1,0.3c1.7-1.1,3-2.8,3.6-4.7L32.6,28z M32.1,19.8l-0.3,0.3c-0.7,0.8-1.5,1.5-2.2,2.2
	c-0.5,0.5-1,0.9-1.5,1.4c0.7,0.2,1.3,0.3,2,0.5c1,0.3,2,0.6,3,0.9l0.4,0.1c0-0.2,0-0.3,0-0.5C33.5,23,33,21.3,32.1,19.8z M32.1,19.8
	l-0.3,0.3c-0.7,0.8-1.5,1.5-2.2,2.2c-0.5,0.5-1,0.9-1.5,1.4c0.7,0.2,1.3,0.3,2,0.5c1,0.3,2,0.6,3,0.9l0.4,0.1c0-0.2,0-0.3,0-0.5
	C33.5,23,33,21.3,32.1,19.8z M32.6,28c-1-0.1-2.1-0.2-3.1-0.3c-0.5,0-0.9-0.1-1.3-0.1c-0.3,0-0.5,0.2-0.4,0.5
	c0.2,0.4,0.3,0.9,0.5,1.3c0.3,1,0.7,2,1,3l0.1,0.3c1.7-1.1,3-2.8,3.6-4.7L32.6,28z M25.3,15.3l0,0.4c0.1,1,0.2,2.1,0.3,3.1
	c0,0.4,0.1,0.8,0.1,1.2c0,0.3,0.4,0.5,0.6,0.3c0.3-0.2,0.7-0.5,1-0.7c0.9-0.6,1.7-1.2,2.6-1.7l0.3-0.2C29,16.5,27.2,15.6,25.3,15.3z
	 M26.6,33.6c-0.6-0.9-1.1-1.8-1.6-2.7c-0.2-0.4-0.5-0.8-0.7-1.2c-0.2-0.3-0.5-0.3-0.7,0c-0.2,0.4-0.5,0.8-0.7,1.2
	c-0.5,0.9-1.1,1.8-1.6,2.7L21.1,34c0.9,0.3,1.8,0.4,2.8,0.4c1,0,2-0.2,2.9-0.5L26.6,33.6z M19.9,27.5c-0.5,0.1-0.9,0.1-1.3,0.2
	c-1,0.1-2.1,0.2-3.1,0.3l-0.5,0c0.7,2,2,3.6,3.7,4.8l0.1-0.4c0.3-1,0.7-2,1-3c0.2-0.5,0.3-1,0.5-1.4C20.4,27.7,20.2,27.4,19.9,27.5z
	 M19.3,23.1c-0.3-0.3-0.6-0.6-1-0.9c-0.7-0.7-1.5-1.5-2.2-2.2l-0.3-0.3c-1,1.5-1.5,3.3-1.5,5.2c0,0.2,0,0.4,0,0.5l0.5-0.2
	c1-0.4,2-0.7,3-1c0.5-0.2,0.9-0.3,1.4-0.4C19.5,23.7,19.6,23.3,19.3,23.1z M19.9,27.5c-0.5,0.1-0.9,0.1-1.3,0.2
	c-1,0.1-2.1,0.2-3.1,0.3l-0.5,0c0.7,2,2,3.6,3.7,4.8l0.1-0.4c0.3-1,0.7-2,1-3c0.2-0.5,0.3-1,0.5-1.4C20.4,27.7,20.2,27.4,19.9,27.5z
	 M26.6,33.6c-0.6-0.9-1.1-1.8-1.6-2.7c-0.2-0.4-0.5-0.8-0.7-1.2c-0.2-0.3-0.5-0.3-0.7,0c-0.2,0.4-0.5,0.8-0.7,1.2
	c-0.5,0.9-1.1,1.8-1.6,2.7L21.1,34c0.9,0.3,1.8,0.4,2.8,0.4c1,0,2-0.2,2.9-0.5L26.6,33.6z M25.3,15.3l0,0.4c0.1,1,0.2,2.1,0.3,3.1
	c0,0.4,0.1,0.8,0.1,1.2c0,0.3,0.4,0.5,0.6,0.3c0.3-0.2,0.7-0.5,1-0.7c0.9-0.6,1.7-1.2,2.6-1.7l0.3-0.2C29,16.5,27.2,15.6,25.3,15.3z
	 M32.6,28c-1-0.1-2.1-0.2-3.1-0.3c-0.5,0-0.9-0.1-1.3-0.1c-0.3,0-0.5,0.2-0.4,0.5c0.2,0.4,0.3,0.9,0.5,1.3c0.3,1,0.7,2,1,3l0.1,0.3
	c1.7-1.1,3-2.8,3.6-4.7L32.6,28z M32.1,19.8l-0.3,0.3c-0.7,0.8-1.5,1.5-2.2,2.2c-0.5,0.5-1,0.9-1.5,1.4c0.7,0.2,1.3,0.3,2,0.5
	c1,0.3,2,0.6,3,0.9l0.4,0.1c0-0.2,0-0.3,0-0.5C33.5,23,33,21.3,32.1,19.8z M32.1,19.8l-0.3,0.3c-0.7,0.8-1.5,1.5-2.2,2.2
	c-0.5,0.5-1,0.9-1.5,1.4c0.7,0.2,1.3,0.3,2,0.5c1,0.3,2,0.6,3,0.9l0.4,0.1c0-0.2,0-0.3,0-0.5C33.5,23,33,21.3,32.1,19.8z M29.5,27.8
	c-0.5,0-0.9-0.1-1.3-0.1c-0.3,0-0.5,0.2-0.4,0.5c0.2,0.4,0.3,0.9,0.5,1.3c0.3,1,0.7,2,1,3l0.1,0.3c1.7-1.1,3-2.8,3.6-4.7l-0.3,0
	C31.6,28,30.5,27.9,29.5,27.8z M30.4,17.7c-1.4-1.2-3.1-2.1-5-2.4l0,0.4c0.1,1,0.2,2.1,0.3,3.1c0,0.4,0.1,0.8,0.1,1.2
	c0,0.3,0.4,0.5,0.6,0.3c0.3-0.2,0.7-0.5,1-0.7c0.9-0.6,1.7-1.2,2.6-1.7L30.4,17.7z M25,30.9c-0.2-0.4-0.5-0.8-0.7-1.2
	c-0.2-0.3-0.5-0.3-0.7,0c-0.2,0.4-0.5,0.8-0.7,1.2c-0.5,0.9-1.1,1.8-1.6,2.7L21.1,34c0.9,0.3,1.8,0.4,2.8,0.4c1,0,2-0.2,2.9-0.5
	l-0.2-0.4C26,32.7,25.5,31.8,25,30.9z M19.9,27.5c-0.5,0.1-0.9,0.1-1.3,0.2c-1,0.1-2.1,0.2-3.1,0.3l-0.5,0c0.7,2,2,3.6,3.7,4.8
	l0.1-0.4c0.3-1,0.7-2,1-3c0.2-0.5,0.3-1,0.5-1.4C20.4,27.7,20.2,27.4,19.9,27.5z M19.2,23.8c0.3-0.1,0.4-0.5,0.2-0.7
	c-0.3-0.3-0.6-0.6-1-0.9c-0.7-0.7-1.5-1.5-2.2-2.2l-0.3-0.3c-1,1.5-1.5,3.3-1.5,5.2c0,0.2,0,0.4,0,0.5l0.5-0.2c1-0.4,2-0.7,3-1
	C18.2,24.1,18.7,23.9,19.2,23.8z M44.8,28.2l-3.7-16.1c-0.2-0.7-0.6-1.3-1.3-1.6L25,3.2c-0.7-0.3-1.4-0.3-2.1,0L8.1,10.4
	c-0.7,0.3-1.1,0.9-1.3,1.6L3.1,28.2c-0.2,0.7,0,1.5,0.5,2l10.3,12.9c0.5,0.6,1.2,0.9,1.9,0.9h16.5c0.7,0,1.4-0.3,1.9-0.9l10.3-12.9
	C44.8,29.6,44.9,28.9,44.8,28.2z M39.6,28.8c-0.3,0.1-0.6,0-0.8-0.1c-0.5-0.3-1-0.5-1.5-0.6c-0.2-0.1-0.5-0.1-0.8-0.2
	c-0.2-0.1-0.5,0-0.8,0.1c-0.3,0.2-0.5,0.1-0.8,0.1h0c-0.8,2.7-2.6,5.1-5,6.5v0c0.1,0.2,0.2,0.5,0.1,0.8c-0.1,0.3-0.1,0.6,0.1,0.8
	c0.1,0.2,0.2,0.5,0.3,0.7c0.3,0.5,0.5,0.9,1,1.3c0.4,0.4,0.5,1,0.1,1.5c-0.4,0.4-1,0.5-1.5,0.1c-0.2-0.2-0.3-0.5-0.3-0.7
	c0-0.6-0.2-1.1-0.3-1.6c-0.1-0.2-0.2-0.5-0.3-0.7c-0.1-0.2-0.3-0.4-0.6-0.6c-0.3-0.1-0.4-0.3-0.5-0.6c-1.2,0.5-2.5,0.7-3.9,0.7
	c-1.4,0-2.7-0.2-3.9-0.7c-0.1,0.2-0.2,0.4-0.5,0.5c-0.3,0.2-0.5,0.3-0.6,0.6c-0.1,0.2-0.2,0.5-0.3,0.7c-0.2,0.5-0.3,1-0.3,1.6
	c0,0.6-0.5,1-1.1,1s-1-0.5-1-1.1c0-0.3,0.1-0.6,0.3-0.7c0.4-0.4,0.7-0.8,1-1.3c0.1-0.2,0.2-0.5,0.3-0.7c0.1-0.2,0.1-0.5,0.1-0.8
	c-0.1-0.3,0-0.5,0.1-0.8c-2.4-1.5-4.2-3.8-5.1-6.5c-0.2,0-0.4,0-0.7-0.1C12,28,11.7,27.9,11.4,28c-0.3,0-0.5,0.1-0.8,0.2
	c-0.5,0.2-1,0.3-1.4,0.7c-0.5,0.3-1.1,0.2-1.5-0.2c-0.3-0.5-0.2-1.1,0.2-1.5C8.3,27,8.5,26.9,8.8,27c0.5,0.1,1.1,0.1,1.6,0
	c0.3,0,0.5-0.1,0.8-0.1c0.3,0,0.5-0.2,0.7-0.5c0.2-0.2,0.4-0.3,0.6-0.4c0-0.4-0.1-0.8-0.1-1.2c0-2.5,0.8-4.7,2.1-6.6
	c-0.2-0.2-0.3-0.3-0.4-0.7c-0.1-0.3-0.2-0.6-0.4-0.7c-0.2-0.2-0.4-0.3-0.6-0.5c-0.4-0.3-0.9-0.6-1.4-0.7c-0.6-0.2-0.9-0.7-0.7-1.3
	c0.2-0.6,0.7-0.9,1.3-0.7c0.3,0.1,0.5,0.3,0.6,0.5c0.3,0.5,0.6,0.9,1,1.3c0.2,0.2,0.4,0.4,0.6,0.5c0.2,0.2,0.5,0.2,0.8,0.3
	c0.3,0,0.5,0.2,0.8,0.3l0,0c1.8-1.7,4.2-2.9,6.8-3.2c0-0.3,0-0.5,0.2-0.8c0.2-0.3,0.3-0.5,0.3-0.8c0-0.3,0-0.5,0-0.8
	c-0.1-0.5-0.1-1-0.4-1.6c-0.2-0.5,0-1.1,0.5-1.4c0.5-0.2,1.1,0,1.4,0.5c0.1,0.3,0.1,0.6,0,0.8c-0.2,0.5-0.3,1-0.4,1.6
	c0,0.3,0,0.5,0,0.8c0,0.3,0.1,0.5,0.3,0.8c0.2,0.3,0.2,0.5,0.2,0.8c2.7,0.3,5.1,1.5,7,3.3c0.2-0.1,0.4-0.3,0.8-0.3
	c0.3,0,0.6-0.1,0.8-0.3c0.2-0.2,0.4-0.3,0.6-0.5c0.4-0.4,0.7-0.8,1-1.3c0.3-0.5,0.9-0.7,1.4-0.5c0.5,0.3,0.7,0.9,0.5,1.4
	c-0.1,0.3-0.4,0.5-0.6,0.5c-0.5,0.2-1,0.4-1.4,0.7c-0.2,0.2-0.4,0.3-0.6,0.5c-0.2,0.1-0.3,0.4-0.4,0.7c-0.1,0.3-0.2,0.5-0.4,0.7
	c1.2,1.8,2,4.1,2,6.4c0,0.4,0,0.7,0,1.1h0c0.2,0.1,0.5,0.1,0.7,0.4c0.2,0.2,0.5,0.4,0.7,0.4c0.3,0.1,0.5,0.1,0.8,0.1
	c0.5,0,1,0.1,1.6-0.1c0.6-0.1,1.1,0.2,1.2,0.8C40.6,28.2,40.2,28.7,39.6,28.8z M31.9,20.1c-0.7,0.8-1.5,1.5-2.2,2.2
	c-0.5,0.5-1,0.9-1.5,1.4c0.7,0.2,1.3,0.3,2,0.5c1,0.3,2,0.6,3,0.9l0.4,0.1c0-0.2,0-0.3,0-0.5c0-1.8-0.5-3.5-1.4-5L31.9,20.1z
	 M29.5,27.8c-0.5,0-0.9-0.1-1.3-0.1c-0.3,0-0.5,0.2-0.4,0.5c0.2,0.4,0.3,0.9,0.5,1.3c0.3,1,0.7,2,1,3l0.1,0.3c1.7-1.1,3-2.8,3.6-4.7
	l-0.3,0C31.6,28,30.5,27.9,29.5,27.8z M30.4,17.7c-1.4-1.2-3.1-2.1-5-2.4l0,0.4c0.1,1,0.2,2.1,0.3,3.1c0,0.4,0.1,0.8,0.1,1.2
	c0,0.3,0.4,0.5,0.6,0.3c0.3-0.2,0.7-0.5,1-0.7c0.9-0.6,1.7-1.2,2.6-1.7L30.4,17.7z M25,30.9c-0.2-0.4-0.5-0.8-0.7-1.2
	c-0.2-0.3-0.5-0.3-0.7,0c-0.2,0.4-0.5,0.8-0.7,1.2c-0.5,0.9-1.1,1.8-1.6,2.7L21.1,34c0.9,0.3,1.8,0.4,2.8,0.4c1,0,2-0.2,2.9-0.5
	l-0.2-0.4C26,32.7,25.5,31.8,25,30.9z M22.2,18.8c0.1-1,0.2-2.1,0.3-3.1l0-0.4c-1.9,0.3-3.5,1.1-4.9,2.2l0.3,0.2
	c0.9,0.6,1.8,1.1,2.6,1.7c0.5,0.3,1,0.7,1.4,1C22.1,19.9,22.1,19.4,22.2,18.8z M19.9,27.5c-0.5,0.1-0.9,0.1-1.3,0.2
	c-1,0.1-2.1,0.2-3.1,0.3l-0.5,0c0.7,2,2,3.6,3.7,4.8l0.1-0.4c0.3-1,0.7-2,1-3c0.2-0.5,0.3-1,0.5-1.4C20.4,27.7,20.2,27.4,19.9,27.5z
	 M19.2,23.8c0.3-0.1,0.4-0.5,0.2-0.7c-0.3-0.3-0.6-0.6-1-0.9c-0.7-0.7-1.5-1.5-2.2-2.2l-0.3-0.3c-1,1.5-1.5,3.3-1.5,5.2
	c0,0.2,0,0.4,0,0.5l0.5-0.2c1-0.4,2-0.7,3-1C18.2,24.1,18.7,23.9,19.2,23.8z M19.3,23.1c-0.3-0.3-0.6-0.6-1-0.9
	c-0.7-0.7-1.5-1.5-2.2-2.2l-0.3-0.3c-1,1.5-1.5,3.3-1.5,5.2c0,0.2,0,0.4,0,0.5l0.5-0.2c1-0.4,2-0.7,3-1c0.5-0.2,0.9-0.3,1.4-0.4
	C19.5,23.7,19.6,23.3,19.3,23.1z M19.9,27.5c-0.5,0.1-0.9,0.1-1.3,0.2c-1,0.1-2.1,0.2-3.1,0.3l-0.5,0c0.7,2,2,3.6,3.7,4.8l0.1-0.4
	c0.3-1,0.7-2,1-3c0.2-0.5,0.3-1,0.5-1.4C20.4,27.7,20.2,27.4,19.9,27.5z M26.6,33.6c-0.6-0.9-1.1-1.8-1.6-2.7
	c-0.2-0.4-0.5-0.8-0.7-1.2c-0.2-0.3-0.5-0.3-0.7,0c-0.2,0.4-0.5,0.8-0.7,1.2c-0.5,0.9-1.1,1.8-1.6,2.7L21.1,34
	c0.9,0.3,1.8,0.4,2.8,0.4c1,0,2-0.2,2.9-0.5L26.6,33.6z M25.3,15.3l0,0.4c0.1,1,0.2,2.1,0.3,3.1c0,0.4,0.1,0.8,0.1,1.2
	c0,0.3,0.4,0.5,0.6,0.3c0.3-0.2,0.7-0.5,1-0.7c0.9-0.6,1.7-1.2,2.6-1.7l0.3-0.2C29,16.5,27.2,15.6,25.3,15.3z M32.6,28
	c-1-0.1-2.1-0.2-3.1-0.3c-0.5,0-0.9-0.1-1.3-0.1c-0.3,0-0.5,0.2-0.4,0.5c0.2,0.4,0.3,0.9,0.5,1.3c0.3,1,0.7,2,1,3l0.1,0.3
	c1.7-1.1,3-2.8,3.6-4.7L32.6,28z M32.1,19.8l-0.3,0.3c-0.7,0.8-1.5,1.5-2.2,2.2c-0.5,0.5-1,0.9-1.5,1.4c0.7,0.2,1.3,0.3,2,0.5
	c1,0.3,2,0.6,3,0.9l0.4,0.1c0-0.2,0-0.3,0-0.5C33.5,23,33,21.3,32.1,19.8z M32.1,19.8l-0.3,0.3c-0.7,0.8-1.5,1.5-2.2,2.2
	c-0.5,0.5-1,0.9-1.5,1.4c0.7,0.2,1.3,0.3,2,0.5c1,0.3,2,0.6,3,0.9l0.4,0.1c0-0.2,0-0.3,0-0.5C33.5,23,33,21.3,32.1,19.8z M32.6,28
	c-1-0.1-2.1-0.2-3.1-0.3c-0.5,0-0.9-0.1-1.3-0.1c-0.3,0-0.5,0.2-0.4,0.5c0.2,0.4,0.3,0.9,0.5,1.3c0.3,1,0.7,2,1,3l0.1,0.3
	c1.7-1.1,3-2.8,3.6-4.7L32.6,28z M25.3,15.3l0,0.4c0.1,1,0.2,2.1,0.3,3.1c0,0.4,0.1,0.8,0.1,1.2c0,0.3,0.4,0.5,0.6,0.3
	c0.3-0.2,0.7-0.5,1-0.7c0.9-0.6,1.7-1.2,2.6-1.7l0.3-0.2C29,16.5,27.2,15.6,25.3,15.3z M26.6,33.6c-0.6-0.9-1.1-1.8-1.6-2.7
	c-0.2-0.4-0.5-0.8-0.7-1.2c-0.2-0.3-0.5-0.3-0.7,0c-0.2,0.4-0.5,0.8-0.7,1.2c-0.5,0.9-1.1,1.8-1.6,2.7L21.1,34
	c0.9,0.3,1.8,0.4,2.8,0.4c1,0,2-0.2,2.9-0.5L26.6,33.6z M19.9,27.5c-0.5,0.1-0.9,0.1-1.3,0.2c-1,0.1-2.1,0.2-3.1,0.3l-0.5,0
	c0.7,2,2,3.6,3.7,4.8l0.1-0.4c0.3-1,0.7-2,1-3c0.2-0.5,0.3-1,0.5-1.4C20.4,27.7,20.2,27.4,19.9,27.5z M19.3,23.1
	c-0.3-0.3-0.6-0.6-1-0.9c-0.7-0.7-1.5-1.5-2.2-2.2l-0.3-0.3c-1,1.5-1.5,3.3-1.5,5.2c0,0.2,0,0.4,0,0.5l0.5-0.2c1-0.4,2-0.7,3-1
	c0.5-0.2,0.9-0.3,1.4-0.4C19.5,23.7,19.6,23.3,19.3,23.1z M19.9,27.5c-0.5,0.1-0.9,0.1-1.3,0.2c-1,0.1-2.1,0.2-3.1,0.3l-0.5,0
	c0.7,2,2,3.6,3.7,4.8l0.1-0.4c0.3-1,0.7-2,1-3c0.2-0.5,0.3-1,0.5-1.4C20.4,27.7,20.2,27.4,19.9,27.5z M26.6,33.6
	c-0.6-0.9-1.1-1.8-1.6-2.7c-0.2-0.4-0.5-0.8-0.7-1.2c-0.2-0.3-0.5-0.3-0.7,0c-0.2,0.4-0.5,0.8-0.7,1.2c-0.5,0.9-1.1,1.8-1.6,2.7
	L21.1,34c0.9,0.3,1.8,0.4,2.8,0.4c1,0,2-0.2,2.9-0.5L26.6,33.6z M25.3,15.3l0,0.4c0.1,1,0.2,2.1,0.3,3.1c0,0.4,0.1,0.8,0.1,1.2
	c0,0.3,0.4,0.5,0.6,0.3c0.3-0.2,0.7-0.5,1-0.7c0.9-0.6,1.7-1.2,2.6-1.7l0.3-0.2C29,16.5,27.2,15.6,25.3,15.3z M32.6,28
	c-1-0.1-2.1-0.2-3.1-0.3c-0.5,0-0.9-0.1-1.3-0.1c-0.3,0-0.5,0.2-0.4,0.5c0.2,0.4,0.3,0.9,0.5,1.3c0.3,1,0.7,2,1,3l0.1,0.3
	c1.7-1.1,3-2.8,3.6-4.7L32.6,28z M32.1,19.8l-0.3,0.3c-0.7,0.8-1.5,1.5-2.2,2.2c-0.5,0.5-1,0.9-1.5,1.4c0.7,0.2,1.3,0.3,2,0.5
	c1,0.3,2,0.6,3,0.9l0.4,0.1c0-0.2,0-0.3,0-0.5C33.5,23,33,21.3,32.1,19.8z M32.1,19.8l-0.3,0.3c-0.7,0.8-1.5,1.5-2.2,2.2
	c-0.5,0.5-1,0.9-1.5,1.4c0.7,0.2,1.3,0.3,2,0.5c1,0.3,2,0.6,3,0.9l0.4,0.1c0-0.2,0-0.3,0-0.5C33.5,23,33,21.3,32.1,19.8z M32.6,28
	c-1-0.1-2.1-0.2-3.1-0.3c-0.5,0-0.9-0.1-1.3-0.1c-0.3,0-0.5,0.2-0.4,0.5c0.2,0.4,0.3,0.9,0.5,1.3c0.3,1,0.7,2,1,3l0.1,0.3
	c1.7-1.1,3-2.8,3.6-4.7L32.6,28z M25.3,15.3l0,0.4c0.1,1,0.2,2.1,0.3,3.1c0,0.4,0.1,0.8,0.1,1.2c0,0.3,0.4,0.5,0.6,0.3
	c0.3-0.2,0.7-0.5,1-0.7c0.9-0.6,1.7-1.2,2.6-1.7l0.3-0.2C29,16.5,27.2,15.6,25.3,15.3z M26.6,33.6c-0.6-0.9-1.1-1.8-1.6-2.7
	c-0.2-0.4-0.5-0.8-0.7-1.2c-0.2-0.3-0.5-0.3-0.7,0c-0.2,0.4-0.5,0.8-0.7,1.2c-0.5,0.9-1.1,1.8-1.6,2.7L21.1,34
	c0.9,0.3,1.8,0.4,2.8,0.4c1,0,2-0.2,2.9-0.5L26.6,33.6z M19.9,27.5c-0.5,0.1-0.9,0.1-1.3,0.2c-1,0.1-2.1,0.2-3.1,0.3l-0.5,0
	c0.7,2,2,3.6,3.7,4.8l0.1-0.4c0.3-1,0.7-2,1-3c0.2-0.5,0.3-1,0.5-1.4C20.4,27.7,20.2,27.4,19.9,27.5z M26.6,33.6
	c-0.6-0.9-1.1-1.8-1.6-2.7c-0.2-0.4-0.5-0.8-0.7-1.2c-0.2-0.3-0.5-0.3-0.7,0c-0.2,0.4-0.5,0.8-0.7,1.2c-0.5,0.9-1.1,1.8-1.6,2.7
	L21.1,34c0.9,0.3,1.8,0.4,2.8,0.4c1,0,2-0.2,2.9-0.5L26.6,33.6z M25.3,15.3l0,0.4c0.1,1,0.2,2.1,0.3,3.1c0,0.4,0.1,0.8,0.1,1.2
	c0,0.3,0.4,0.5,0.6,0.3c0.3-0.2,0.7-0.5,1-0.7c0.9-0.6,1.7-1.2,2.6-1.7l0.3-0.2C29,16.5,27.2,15.6,25.3,15.3z M32.6,28
	c-1-0.1-2.1-0.2-3.1-0.3c-0.5,0-0.9-0.1-1.3-0.1c-0.3,0-0.5,0.2-0.4,0.5c0.2,0.4,0.3,0.9,0.5,1.3c0.3,1,0.7,2,1,3l0.1,0.3
	c1.7-1.1,3-2.8,3.6-4.7L32.6,28z M32.1,19.8l-0.3,0.3c-0.7,0.8-1.5,1.5-2.2,2.2c-0.5,0.5-1,0.9-1.5,1.4c0.7,0.2,1.3,0.3,2,0.5
	c1,0.3,2,0.6,3,0.9l0.4,0.1c0-0.2,0-0.3,0-0.5C33.5,23,33,21.3,32.1,19.8z M32.1,19.8l-0.3,0.3c-0.7,0.8-1.5,1.5-2.2,2.2
	c-0.5,0.5-1,0.9-1.5,1.4c0.7,0.2,1.3,0.3,2,0.5c1,0.3,2,0.6,3,0.9l0.4,0.1c0-0.2,0-0.3,0-0.5C33.5,23,33,21.3,32.1,19.8z M32.6,28
	c-1-0.1-2.1-0.2-3.1-0.3c-0.5,0-0.9-0.1-1.3-0.1c-0.3,0-0.5,0.2-0.4,0.5c0.2,0.4,0.3,0.9,0.5,1.3c0.3,1,0.7,2,1,3l0.1,0.3
	c1.7-1.1,3-2.8,3.6-4.7L32.6,28z M25.3,15.3l0,0.4c0.1,1,0.2,2.1,0.3,3.1c0,0.4,0.1,0.8,0.1,1.2c0,0.3,0.4,0.5,0.6,0.3
	c0.3-0.2,0.7-0.5,1-0.7c0.9-0.6,1.7-1.2,2.6-1.7l0.3-0.2C29,16.5,27.2,15.6,25.3,15.3z M26.6,33.6c-0.6-0.9-1.1-1.8-1.6-2.7
	c-0.2-0.4-0.5-0.8-0.7-1.2c-0.2-0.3-0.5-0.3-0.7,0c-0.2,0.4-0.5,0.8-0.7,1.2c-0.5,0.9-1.1,1.8-1.6,2.7L21.1,34
	c0.9,0.3,1.8,0.4,2.8,0.4c1,0,2-0.2,2.9-0.5L26.6,33.6z M26.6,33.6c-0.6-0.9-1.1-1.8-1.6-2.7c-0.2-0.4-0.5-0.8-0.7-1.2
	c-0.2-0.3-0.5-0.3-0.7,0c-0.2,0.4-0.5,0.8-0.7,1.2c-0.5,0.9-1.1,1.8-1.6,2.7L21.1,34c0.9,0.3,1.8,0.4,2.8,0.4c1,0,2-0.2,2.9-0.5
	L26.6,33.6z M25.3,15.3l0,0.4c0.1,1,0.2,2.1,0.3,3.1c0,0.4,0.1,0.8,0.1,1.2c0,0.3,0.4,0.5,0.6,0.3c0.3-0.2,0.7-0.5,1-0.7
	c0.9-0.6,1.7-1.2,2.6-1.7l0.3-0.2C29,16.5,27.2,15.6,25.3,15.3z M32.6,28c-1-0.1-2.1-0.2-3.1-0.3c-0.5,0-0.9-0.1-1.3-0.1
	c-0.3,0-0.5,0.2-0.4,0.5c0.2,0.4,0.3,0.9,0.5,1.3c0.3,1,0.7,2,1,3l0.1,0.3c1.7-1.1,3-2.8,3.6-4.7L32.6,28z M32.1,19.8l-0.3,0.3
	c-0.7,0.8-1.5,1.5-2.2,2.2c-0.5,0.5-1,0.9-1.5,1.4c0.7,0.2,1.3,0.3,2,0.5c1,0.3,2,0.6,3,0.9l0.4,0.1c0-0.2,0-0.3,0-0.5
	C33.5,23,33,21.3,32.1,19.8z M32.1,19.8l-0.3,0.3c-0.7,0.8-1.5,1.5-2.2,2.2c-0.5,0.5-1,0.9-1.5,1.4c0.7,0.2,1.3,0.3,2,0.5
	c1,0.3,2,0.6,3,0.9l0.4,0.1c0-0.2,0-0.3,0-0.5C33.5,23,33,21.3,32.1,19.8z M32.6,28c-1-0.1-2.1-0.2-3.1-0.3c-0.5,0-0.9-0.1-1.3-0.1
	c-0.3,0-0.5,0.2-0.4,0.5c0.2,0.4,0.3,0.9,0.5,1.3c0.3,1,0.7,2,1,3l0.1,0.3c1.7-1.1,3-2.8,3.6-4.7L32.6,28z M25.3,15.3l0,0.4
	c0.1,1,0.2,2.1,0.3,3.1c0,0.4,0.1,0.8,0.1,1.2c0,0.3,0.4,0.5,0.6,0.3c0.3-0.2,0.7-0.5,1-0.7c0.9-0.6,1.7-1.2,2.6-1.7l0.3-0.2
	C29,16.5,27.2,15.6,25.3,15.3z M26.6,33.6c-0.6-0.9-1.1-1.8-1.6-2.7c-0.2-0.4-0.5-0.8-0.7-1.2c-0.2-0.3-0.5-0.3-0.7,0
	c-0.2,0.4-0.5,0.8-0.7,1.2c-0.5,0.9-1.1,1.8-1.6,2.7L21.1,34c0.9,0.3,1.8,0.4,2.8,0.4c1,0,2-0.2,2.9-0.5L26.6,33.6z M25.3,15.3
	l0,0.4c0.1,1,0.2,2.1,0.3,3.1c0,0.4,0.1,0.8,0.1,1.2c0,0.3,0.4,0.5,0.6,0.3c0.3-0.2,0.7-0.5,1-0.7c0.9-0.6,1.7-1.2,2.6-1.7l0.3-0.2
	C29,16.5,27.2,15.6,25.3,15.3z M32.6,28c-1-0.1-2.1-0.2-3.1-0.3c-0.5,0-0.9-0.1-1.3-0.1c-0.3,0-0.5,0.2-0.4,0.5
	c0.2,0.4,0.3,0.9,0.5,1.3c0.3,1,0.7,2,1,3l0.1,0.3c1.7-1.1,3-2.8,3.6-4.7L32.6,28z M32.1,19.8l-0.3,0.3c-0.7,0.8-1.5,1.5-2.2,2.2
	c-0.5,0.5-1,0.9-1.5,1.4c0.7,0.2,1.3,0.3,2,0.5c1,0.3,2,0.6,3,0.9l0.4,0.1c0-0.2,0-0.3,0-0.5C33.5,23,33,21.3,32.1,19.8z M32.1,19.8
	l-0.3,0.3c-0.7,0.8-1.5,1.5-2.2,2.2c-0.5,0.5-1,0.9-1.5,1.4c0.7,0.2,1.3,0.3,2,0.5c1,0.3,2,0.6,3,0.9l0.4,0.1c0-0.2,0-0.3,0-0.5
	C33.5,23,33,21.3,32.1,19.8z M32.6,28c-1-0.1-2.1-0.2-3.1-0.3c-0.5,0-0.9-0.1-1.3-0.1c-0.3,0-0.5,0.2-0.4,0.5
	c0.2,0.4,0.3,0.9,0.5,1.3c0.3,1,0.7,2,1,3l0.1,0.3c1.7-1.1,3-2.8,3.6-4.7L32.6,28z M25.3,15.3l0,0.4c0.1,1,0.2,2.1,0.3,3.1
	c0,0.4,0.1,0.8,0.1,1.2c0,0.3,0.4,0.5,0.6,0.3c0.3-0.2,0.7-0.5,1-0.7c0.9-0.6,1.7-1.2,2.6-1.7l0.3-0.2C29,16.5,27.2,15.6,25.3,15.3z
	 M25.3,15.3l0,0.4c0.1,1,0.2,2.1,0.3,3.1c0,0.4,0.1,0.8,0.1,1.2c0,0.3,0.4,0.5,0.6,0.3c0.3-0.2,0.7-0.5,1-0.7
	c0.9-0.6,1.7-1.2,2.6-1.7l0.3-0.2C29,16.5,27.2,15.6,25.3,15.3z M32.1,19.8l-0.3,0.3c-0.7,0.8-1.5,1.5-2.2,2.2
	c-0.5,0.5-1,0.9-1.5,1.4c0.7,0.2,1.3,0.3,2,0.5c1,0.3,2,0.6,3,0.9l0.4,0.1c0-0.2,0-0.3,0-0.5C33.5,23,33,21.3,32.1,19.8z M32.1,19.8
	l-0.3,0.3c-0.7,0.8-1.5,1.5-2.2,2.2c-0.5,0.5-1,0.9-1.5,1.4c0.7,0.2,1.3,0.3,2,0.5c1,0.3,2,0.6,3,0.9l0.4,0.1c0-0.2,0-0.3,0-0.5
	C33.5,23,33,21.3,32.1,19.8z M25.3,15.3l0,0.4c0.1,1,0.2,2.1,0.3,3.1c0,0.4,0.1,0.8,0.1,1.2c0,0.3,0.4,0.5,0.6,0.3
	c0.3-0.2,0.7-0.5,1-0.7c0.9-0.6,1.7-1.2,2.6-1.7l0.3-0.2C29,16.5,27.2,15.6,25.3,15.3z M25.3,15.3l0,0.4c0.1,1,0.2,2.1,0.3,3.1
	c0,0.4,0.1,0.8,0.1,1.2c0,0.3,0.4,0.5,0.6,0.3c0.3-0.2,0.7-0.5,1-0.7c0.9-0.6,1.7-1.2,2.6-1.7l0.3-0.2C29,16.5,27.2,15.6,25.3,15.3z
	 M32.1,19.8l-0.3,0.3c-0.7,0.8-1.5,1.5-2.2,2.2c-0.5,0.5-1,0.9-1.5,1.4c0.7,0.2,1.3,0.3,2,0.5c1,0.3,2,0.6,3,0.9l0.4,0.1
	c0-0.2,0-0.3,0-0.5C33.5,23,33,21.3,32.1,19.8z M32.1,19.8l-0.3,0.3c-0.7,0.8-1.5,1.5-2.2,2.2c-0.5,0.5-1,0.9-1.5,1.4
	c0.7,0.2,1.3,0.3,2,0.5c1,0.3,2,0.6,3,0.9l0.4,0.1c0-0.2,0-0.3,0-0.5C33.5,23,33,21.3,32.1,19.8z M25.3,15.3l0,0.4
	c0.1,1,0.2,2.1,0.3,3.1c0,0.4,0.1,0.8,0.1,1.2c0,0.3,0.4,0.5,0.6,0.3c0.3-0.2,0.7-0.5,1-0.7c0.9-0.6,1.7-1.2,2.6-1.7l0.3-0.2
	C29,16.5,27.2,15.6,25.3,15.3z M25.3,15.3l0,0.4c0.1,1,0.2,2.1,0.3,3.1c0,0.4,0.1,0.8,0.1,1.2c0,0.3,0.4,0.5,0.6,0.3
	c0.3-0.2,0.7-0.5,1-0.7c0.9-0.6,1.7-1.2,2.6-1.7l0.3-0.2C29,16.5,27.2,15.6,25.3,15.3z M25.3,15.3l0,0.4c0.1,1,0.2,2.1,0.3,3.1
	c0,0.4,0.1,0.8,0.1,1.2c0,0.3,0.4,0.5,0.6,0.3c0.3-0.2,0.7-0.5,1-0.7c0.9-0.6,1.7-1.2,2.6-1.7l0.3-0.2C29,16.5,27.2,15.6,25.3,15.3z
	"/>
<path class="st2" d="M12.9,28.2c-0.2,0-0.4,0-0.7-0.1C12,28,11.7,27.9,11.4,28c-0.3,0-0.5,0.1-0.8,0.2c-0.5,0.2-1,0.3-1.4,0.7
	c-0.5,0.3-1.1,0.2-1.5-0.2c-0.3-0.5-0.2-1.1,0.2-1.5C8.3,27,8.6,26.9,8.8,27c0.5,0.1,1.1,0.1,1.6,0c0.3,0,0.5-0.1,0.8-0.1
	c0.3,0,0.5-0.2,0.7-0.5c0.2-0.2,0.4-0.3,0.6-0.4C12.6,26.8,12.7,27.5,12.9,28.2z"/>
<path class="st2" d="M20.1,35.7c-0.1,0.2-0.2,0.4-0.5,0.5c-0.3,0.2-0.5,0.3-0.6,0.6c-0.1,0.2-0.2,0.5-0.3,0.7
	c-0.2,0.5-0.3,1-0.3,1.6c0,0.6-0.5,1-1.1,1s-1-0.5-1-1.1c0-0.3,0.1-0.6,0.3-0.7c0.4-0.4,0.7-0.8,1-1.3c0.1-0.2,0.2-0.5,0.3-0.7
	c0.1-0.2,0.1-0.5,0.1-0.8c-0.1-0.3,0-0.5,0.1-0.8C18.7,35.1,19.3,35.4,20.1,35.7z"/>
<path class="st2" d="M31.4,39.8c-0.4,0.4-1,0.5-1.5,0.1c-0.2-0.2-0.3-0.5-0.3-0.7c0-0.6-0.2-1.1-0.3-1.6c-0.1-0.2-0.2-0.5-0.3-0.7
	c-0.1-0.2-0.3-0.4-0.6-0.6c-0.3-0.1-0.4-0.3-0.5-0.6c0.7-0.3,1.4-0.6,2.1-1v0c0.1,0.2,0.2,0.5,0.1,0.8c-0.1,0.3-0.1,0.6,0.1,0.8
	c0.1,0.2,0.2,0.5,0.3,0.7c0.3,0.5,0.5,0.9,1,1.3C31.8,38.7,31.8,39.4,31.4,39.8z"/>
<path class="st2" d="M39.6,28.8c-0.3,0.1-0.6,0-0.8-0.1c-0.5-0.3-1-0.5-1.5-0.6c-0.2-0.1-0.5-0.1-0.8-0.2c-0.2-0.1-0.5,0-0.8,0.1
	c-0.3,0.2-0.5,0.1-0.8,0.1h0c0.2-0.7,0.4-1.5,0.4-2.2h0c0.2,0.1,0.5,0.1,0.7,0.4c0.2,0.2,0.5,0.4,0.7,0.4c0.3,0.1,0.5,0.1,0.8,0.1
	c0.5,0,1,0.1,1.6-0.1c0.6-0.1,1.1,0.2,1.2,0.8C40.6,28.2,40.2,28.7,39.6,28.8z"/>
</svg>
